<?xml version="1.0" encoding="utf-8"?>
<!-- Generator: Adobe Illustrator 18.0.0, SVG Export Plug-In . SVG Version: 6.00 Build 0)  -->
<!DOCTYPE svg PUBLIC "-//W3C//DTD SVG 1.1//EN" "http://www.w3.org/Graphics/SVG/1.1/DTD/svg11.dtd">
<svg version="1.1" id="Layer_1" xmlns="http://www.w3.org/2000/svg" xmlns:xlink="http://www.w3.org/1999/xlink" x="0px" y="0px"
	 viewBox="308 -144 432 432" enable-background="new 308 -144 432 432" xml:space="preserve">
<circle fill="none" stroke="#000000" stroke-width="17" stroke-miterlimit="10" cx="524" cy="72" r="177.8"/>
<g>
	<path d="M611.1,58.4L611.1,58.4C611.1,58.6,611.1,58.6,611.1,58.4c-0.2,0.2-0.2,0.2-0.2,0.4C611.1,58.6,611.1,58.6,611.1,58.4z"/>
	<path d="M611.1,58.4C611.3,58.2,611.3,58.2,611.1,58.4L611.1,58.4z"/>
	<path d="M476.8-41c1.9,5.3,6.2,5.9,11,5.9c0.8,0,1.7,0,2.3,0c23.1,0,46.5,0,69.6,0c3,0,6.6-0.6,8.9-2.3c4.9-3.4,3.8-8.7-1.1-12.9
		c1.5-4,3.8-7.4,3.6-10.6c-0.2-2.3-3.2-4.7-5.5-6.4c-1.3-0.8-3.8-0.6-5.7-0.6c-24,0-47.9,0-72.1,0c-1.7,0-3.6,0-5.3,0.4
		c-6.4,1.5-8.5,8.7-4,13.6c0.8,0.8,1.9,1.7,3,2.8C477.9-48.9,475.1-45.7,476.8-41z"/>
	<path d="M571.6,3.1c-5.3-8.1-8.9-17.2-12.3-26.3c-1.3-3.6-2.5-4.7-6.2-4.5c-19.3,0.2-38.8,0-58.1,0c-1.7,0-3.4,0.2-4.5,0.2
		C480,6.5,456.7,31.3,436.7,58c5.3,5.7,11,11.2,15.9,17.4c20.6,25.9,34.6,55.6,47.3,85.9c6.8,16.3,12.9,32.9,19.9,50.7
		c0.2-1.7,0.4-2.5,0.4-3.2c0-21.9,0-43.7,0-65.6h0v-34.8h-5.7v34.2h-8.3V96.4C494,90,485.5,77.1,485.5,62
		c0-21.4,17.4-38.6,38.6-38.6s38.6,17.4,38.6,38.6c0,14.8-8.5,27.8-20.8,34.4v45.8h-8.5v-33.8h-5.7v33.8h0c0,21.6,0,43.5,0,65.1
		c0,1.1,0.2,2.3,0.6,4.7c1.1-2.3,1.5-3.6,1.9-4.7c10.8-26.1,20.8-52.6,32.5-78.3c11.9-26.1,26.3-50.7,48.1-70.2
		C597.5,39.8,583.9,21.7,571.6,3.1z"/>
	<path d="M494.6,70.7c0.4,5.7,5.1,10.4,11,10.4s10.6-4.7,11-10.4H494.6z"/>
	<path d="M531.8,70.7c0.4,5.7,5.1,10.4,11,10.4c5.9,0,10.6-4.7,11-10.4H531.8z"/>
</g>
<g>
	<path fill="#FFFFFF" d="M157.8,69L157.8,69C157.8,69.2,157.8,69.2,157.8,69c-0.2,0.2-0.2,0.2-0.2,0.4
		C157.8,69.2,157.8,69.2,157.8,69z"/>
	<path fill="#FFFFFF" d="M157.8,69C158,68.8,158,68.8,157.8,69L157.8,69z"/>
	<path fill="#FFFFFF" d="M23.5-30.5c1.9,5.3,6.2,5.9,11,5.9c0.8,0,1.7,0,2.3,0c23.1,0,46.5,0,69.6,0c3,0,6.6-0.6,8.9-2.3
		c4.9-3.4,3.8-8.7-1.1-12.9c1.5-4,3.8-7.4,3.6-10.6c-0.2-2.3-3.2-4.7-5.5-6.4c-1.3-0.8-3.8-0.6-5.7-0.6c-24,0-47.9,0-72.1,0
		c-1.7,0-3.6,0-5.3,0.4c-6.4,1.5-8.5,8.7-4,13.6c0.8,0.8,1.9,1.7,3,2.8C24.6-38.3,21.8-35.1,23.5-30.5z"/>
	<path fill="#FFFFFF" d="M118.3,13.6C113,5.6,109.4-3.5,106-12.7c-1.3-3.6-2.5-4.7-6.2-4.5c-19.3,0.2-38.8,0-58.1,0
		c-1.7,0-3.4,0.2-4.5,0.2C26.7,17,3.4,41.8-16.6,68.6c5.3,5.7,11,11.2,15.9,17.4c20.6,25.9,34.6,55.6,47.3,85.9
		c6.8,16.3,12.9,32.9,19.9,50.7c0.2-1.7,0.4-2.5,0.4-3.2c0-21.9,0-43.7,0-65.6h0V119h-5.7v34.2H53V107
		c-12.3-6.4-20.8-19.3-20.8-34.4C32.2,51.2,49.6,34,70.8,34s38.6,17.4,38.6,38.6c0,14.8-8.5,27.8-20.8,34.4v45.8h-8.5V119h-5.7v33.8
		h0c0,21.6,0,43.5,0,65.1c0,1.1,0.2,2.3,0.6,4.7c1.1-2.3,1.5-3.6,1.9-4.7c10.8-26.1,20.8-52.6,32.5-78.3
		c11.9-26.1,26.3-50.7,48.1-70.2C144.2,50.3,130.6,32.3,118.3,13.6z"/>
	<path fill="#FFFFFF" d="M41.3,81.3c0.4,5.7,5.1,10.4,11,10.4c5.9,0,10.6-4.7,11-10.4H41.3z"/>
	<path fill="#FFFFFF" d="M78.4,81.3c0.4,5.7,5.1,10.4,11,10.4c5.9,0,10.6-4.7,11-10.4H78.4z"/>
</g>
<g>
	<path d="M157.8,69L157.8,69C157.8,69.2,157.8,69.2,157.8,69c-0.2,0.2-0.2,0.2-0.2,0.4C157.8,69.2,157.8,69.2,157.8,69z"/>
	<path d="M157.8,69C158,68.8,158,68.8,157.8,69L157.8,69z"/>
	<path d="M23.5-30.5c1.9,5.3,6.2,5.9,11,5.9c0.8,0,1.7,0,2.3,0c23.1,0,46.5,0,69.6,0c3,0,6.6-0.6,8.9-2.3c4.9-3.4,3.8-8.7-1.1-12.9
		c1.5-4,3.8-7.4,3.6-10.6c-0.2-2.3-3.2-4.7-5.5-6.4c-1.3-0.8-3.8-0.6-5.7-0.6c-24,0-47.9,0-72.1,0c-1.7,0-3.6,0-5.3,0.4
		c-6.4,1.5-8.5,8.7-4,13.6c0.8,0.8,1.9,1.7,3,2.8C24.6-38.3,21.8-35.1,23.5-30.5z"/>
	<path d="M118.3,13.6C113,5.6,109.4-3.5,106-12.7c-1.3-3.6-2.5-4.7-6.2-4.5c-19.3,0.2-38.8,0-58.1,0c-1.7,0-3.4,0.2-4.5,0.2
		C26.7,17,3.4,41.8-16.6,68.6c5.3,5.7,11,11.2,15.9,17.4c20.6,25.9,34.6,55.6,47.3,85.9c6.8,16.3,12.9,32.9,19.9,50.7
		c0.2-1.7,0.4-2.5,0.4-3.2c0-21.9,0-43.7,0-65.6h0V119h-5.7v34.2H53V107c-12.3-6.4-20.8-19.3-20.8-34.4C32.2,51.2,49.6,34,70.8,34
		s38.6,17.4,38.6,38.6c0,14.8-8.5,27.8-20.8,34.4v45.8h-8.5V119h-5.7v33.8h0c0,21.6,0,43.5,0,65.1c0,1.1,0.2,2.3,0.6,4.7
		c1.1-2.3,1.5-3.6,1.9-4.7c10.8-26.1,20.8-52.6,32.5-78.3c11.9-26.1,26.3-50.7,48.1-70.2C144.2,50.3,130.6,32.3,118.3,13.6z"/>
	<path d="M41.3,81.3c0.4,5.7,5.1,10.4,11,10.4c5.9,0,10.6-4.7,11-10.4H41.3z"/>
	<path d="M78.4,81.3c0.4,5.7,5.1,10.4,11,10.4c5.9,0,10.6-4.7,11-10.4H78.4z"/>
</g>
</svg>
