<?xml version="1.0" encoding="utf-8"?>
<!-- Generator: Adobe Illustrator 17.0.0, SVG Export Plug-In . SVG Version: 6.00 Build 0)  -->
<!DOCTYPE svg PUBLIC "-//W3C//DTD SVG 1.1//EN" "http://www.w3.org/Graphics/SVG/1.1/DTD/svg11.dtd">
<svg version="1.1" id="Layer_1" xmlns="http://www.w3.org/2000/svg" xmlns:xlink="http://www.w3.org/1999/xlink" x="0px" y="0px"
	 width="523.881px" height="525.373px" viewBox="0 0 523.881 525.373" enable-background="new 0 0 523.881 525.373"
	 xml:space="preserve">
<circle fill="none" stroke="#FFFFFF" stroke-width="17" stroke-miterlimit="10" cx="262.03" cy="262.373" r="251.883"/>
<g>
	<path fill="#FFFFFF" d="M385.421,243.106L385.421,243.106C385.421,243.39,385.421,243.39,385.421,243.106
		c-0.283,0.283-0.283,0.283-0.283,0.567C385.421,243.39,385.421,243.39,385.421,243.106z"/>
	<path fill="#FFFFFF" d="M385.421,243.106C385.705,242.823,385.705,242.823,385.421,243.106L385.421,243.106z"/>
	<path fill="#FFFFFF" d="M195.163,102.29c2.692,7.508,8.783,8.358,15.583,8.358c1.133,0,2.408,0,3.258,0c32.725,0,65.875,0,98.6,0
		c4.25,0,9.35-0.85,12.608-3.258c6.942-4.817,5.383-12.325-1.558-18.275c2.125-5.667,5.383-10.483,5.1-15.017
		c-0.283-3.258-4.533-6.658-7.792-9.067c-1.842-1.133-5.383-0.85-8.075-0.85c-34,0-67.858,0-102.142,0c-2.408,0-5.1,0-7.508,0.567
		c-9.067,2.125-12.042,12.325-5.667,19.267c1.133,1.133,2.692,2.408,4.25,3.967C196.722,91.098,192.755,95.631,195.163,102.29z"/>
	<path fill="#FFFFFF" d="M329.463,164.765c-7.508-11.475-12.608-24.367-17.425-37.258c-1.842-5.1-3.542-6.658-8.783-6.375
		c-27.342,0.283-54.967,0-82.308,0c-2.408,0-4.817,0.283-6.375,0.283c-14.875,48.167-47.883,83.3-76.217,121.125
		c7.508,8.075,15.583,15.867,22.525,24.65c29.183,36.692,49.017,78.767,67.008,121.692c9.633,23.092,18.275,46.608,28.192,71.825
		c0.283-2.408,0.567-3.542,0.567-4.533c0-31.025,0-61.908,0-92.933l0,0v-49.3h-8.075v48.45h-11.758v-65.45
		c-17.283-9.067-29.325-27.342-29.325-48.733c0-30.317,24.65-54.683,54.683-54.683c30.033,0,54.683,24.65,54.683,54.683
		c0,20.967-12.042,39.383-29.467,48.733v64.883h-12.042V313.94h-8.075v47.883l0,0c0,30.6,0,61.625,0,92.225
		c0,1.558,0.283,3.258,0.85,6.658c1.558-3.258,2.125-5.1,2.692-6.658c15.3-36.975,29.467-74.517,46.042-110.925
		c16.858-36.975,37.258-71.825,68.142-99.45C366.155,216.756,346.888,191.115,329.463,164.765z"/>
	<path fill="#FFFFFF" d="M220.38,260.531c0.567,8.075,7.225,14.733,15.583,14.733s15.017-6.658,15.583-14.733H220.38z"/>
	<path fill="#FFFFFF" d="M273.08,260.531c0.567,8.075,7.225,14.733,15.583,14.733s15.017-6.658,15.583-14.733H273.08z"/>
</g>
</svg>
